<svg width="30" height="26" viewBox="0 0 30 26" fill="none" xmlns="http://www.w3.org/2000/svg">
<path d="M29.94 13.003C29.94 11.0689 27.5179 9.23598 23.8045 8.09934C24.6614 4.31449 24.2806 1.30327 22.6024 0.339208C22.2156 0.113069 21.7633 0.00595093 21.2694 0.00595093V1.33303C21.5431 1.33303 21.7633 1.38659 21.9478 1.48775C22.7571 1.95193 23.1082 3.71939 22.8345 5.99268C22.769 6.55207 22.6619 7.14122 22.531 7.74228C21.3646 7.45663 20.0911 7.23644 18.7521 7.09361C17.9487 5.99268 17.1155 4.9929 16.2765 4.1181C18.2165 2.31495 20.0375 1.32708 21.2753 1.32708V0C19.6388 0 17.4964 1.1664 15.3302 3.18975C13.1641 1.1783 11.0217 0.0238042 9.38517 0.0238042V1.35088C10.617 1.35088 12.444 2.3328 14.384 4.12406C13.5509 4.99886 12.7177 5.99268 11.9263 7.09361C10.5813 7.23644 9.30781 7.45663 8.14141 7.74823C8.00454 7.15312 7.90337 6.57588 7.83196 6.02243C7.55226 3.74914 7.89742 1.98169 8.7008 1.51156C8.87933 1.40444 9.11142 1.35683 9.38517 1.35683V0.0297551C8.88529 0.0297551 8.43301 0.136873 8.04024 0.363012C6.368 1.32708 5.99309 4.33234 6.85599 8.10529C3.15446 9.24788 0.744293 11.0748 0.744293 13.003C0.744293 14.9371 3.16636 16.77 6.87979 17.9066C6.02285 21.6915 6.40371 24.7027 8.0819 25.6667C8.46872 25.8929 8.92099 26 9.42088 26C11.0574 26 13.1998 24.8336 15.3659 22.8103C17.5321 24.8217 19.6745 25.9762 21.311 25.9762C21.8109 25.9762 22.2632 25.8691 22.6559 25.6429C24.3282 24.6789 24.7031 21.6736 23.8402 17.9007C27.5298 16.764 29.94 14.9311 29.94 13.003V13.003ZM22.1918 9.03365C21.9716 9.80133 21.6978 10.5928 21.3884 11.3843C21.1444 10.9082 20.8885 10.4321 20.6088 9.95605C20.335 9.47997 20.0434 9.01579 19.7518 8.56351C20.5969 8.68849 21.4122 8.84321 22.1918 9.03365ZM19.4662 15.3715C19.002 16.1749 18.5259 16.9366 18.032 17.6448C17.1453 17.7221 16.2467 17.7638 15.3421 17.7638C14.4435 17.7638 13.5449 17.7221 12.6642 17.6507C12.1702 16.9425 11.6882 16.1868 11.224 15.3893C10.7718 14.6098 10.3611 13.8183 9.98622 13.0208C10.3552 12.2234 10.7718 11.426 11.2181 10.6464C11.6823 9.84298 12.1583 9.08125 12.6523 8.37308C13.539 8.29572 14.4376 8.25406 15.3421 8.25406C16.2407 8.25406 17.1393 8.29572 18.0201 8.36713C18.514 9.0753 18.9961 9.83108 19.4602 10.6285C19.9125 11.4081 20.3231 12.1996 20.6981 12.997C20.3231 13.7945 19.9125 14.5919 19.4662 15.3715ZM21.3884 14.5978C21.7097 15.3953 21.9835 16.1927 22.2096 16.9664C21.43 17.1568 20.6088 17.3175 19.7578 17.4424C20.0494 16.9842 20.341 16.5141 20.6147 16.032C20.8885 15.556 21.1444 15.0739 21.3884 14.5978ZM15.354 20.9476C14.8006 20.3763 14.2472 19.7395 13.6997 19.0433C14.2353 19.0671 14.7827 19.0849 15.3362 19.0849C15.8956 19.0849 16.449 19.073 16.9906 19.0433C16.455 19.7395 15.9015 20.3763 15.354 20.9476ZM10.9265 17.4424C10.0814 17.3175 9.26615 17.1627 8.48657 16.9723C8.70676 16.2046 8.9805 15.4131 9.28995 14.6217C9.53395 15.0977 9.78984 15.5738 10.0695 16.0499C10.3492 16.526 10.6349 16.9902 10.9265 17.4424ZM15.3243 5.05837C15.8777 5.62966 16.4312 6.26642 16.9787 6.96269C16.4431 6.93889 15.8956 6.92103 15.3421 6.92103C14.7827 6.92103 14.2293 6.93294 13.6878 6.96269C14.2234 6.26642 14.7768 5.62966 15.3243 5.05837ZM10.9205 8.56351C10.6289 9.02174 10.3373 9.49187 10.0636 9.97391C9.78984 10.45 9.53395 10.9261 9.28995 11.4022C8.9686 10.6047 8.69485 9.80728 8.46872 9.03365C9.2483 8.84916 10.0695 8.68849 10.9205 8.56351V8.56351ZM5.53486 16.0142C3.4282 15.1156 2.06542 13.9373 2.06542 13.003C2.06542 12.0687 3.4282 10.8844 5.53486 9.99176C6.04665 9.77157 6.60605 9.57519 7.18329 9.39071C7.5225 10.5571 7.96883 11.7711 8.52227 13.0149C7.97478 14.2527 7.53441 15.4607 7.20115 16.6212C6.612 16.4367 6.0526 16.2344 5.53486 16.0142ZM8.73651 24.5182C7.92717 24.054 7.57606 22.2866 7.84981 20.0133C7.91527 19.4539 8.02239 18.8647 8.15331 18.2637C9.31971 18.5493 10.5932 18.7695 11.9322 18.9123C12.7356 20.0133 13.5687 21.013 14.4078 21.8878C12.4678 23.691 10.6468 24.6789 9.40898 24.6789C9.14118 24.6729 8.91504 24.6194 8.73651 24.5182V24.5182ZM22.8523 19.9835C23.132 22.2568 22.7869 24.0243 21.9835 24.4944C21.8049 24.6015 21.5729 24.6491 21.2991 24.6491C20.0672 24.6491 18.2403 23.6672 16.3003 21.8759C17.1334 21.0011 17.9665 20.0073 18.758 18.9064C20.103 18.7636 21.3765 18.5434 22.5429 18.2518C22.6797 18.8528 22.7869 19.4301 22.8523 19.9835V19.9835ZM25.1435 16.0142C24.6317 16.2344 24.0723 16.4308 23.495 16.6152C23.1558 15.4488 22.7095 14.2348 22.1561 12.9911C22.7035 11.7533 23.1439 10.5452 23.4772 9.38476C24.0663 9.56924 24.6257 9.77157 25.1494 9.99176C27.2561 10.8904 28.6189 12.0687 28.6189 13.003C28.6129 13.9373 27.2501 15.1215 25.1435 16.0142V16.0142Z" fill="#61DAFB"/>
<path d="M15.3362 15.7226C16.8382 15.7226 18.0558 14.505 18.0558 13.003C18.0558 11.501 16.8382 10.2834 15.3362 10.2834C13.8342 10.2834 12.6166 11.501 12.6166 13.003C12.6166 14.505 13.8342 15.7226 15.3362 15.7226Z" fill="#61DAFB"/>
</svg>
